What is Hi10P ?

Hi10P is the advanced version of the normal x264. This gives more quality for the same size. 
You have the ability to watch Ultra Quality movies with the new Hi10P encodes.

Hi10P needs Updated, Advanced video players. 

i recommend VLC or Media Player Classic because it's pretty easy.
But, you can select any of your choice.(if problem to play then intsall k-lite codecs pack)



 
http://www.imdb.com/title/tt2077833/
 
http://en.wikipedia.org/wiki/Rowdy_Rathore


Format                                   : Matroska
Format version                           : Version 2
File size                                : 2.46 GiB
Duration                                 : 2h 23mn
Overall bit rate                         : 2 449 Kbps


Video
ID                                       : 1
Format                                   : AVC
Format/Info                              : Advanced Video Codec
Format profile                           : High 10@L4.1
Format settings, CABAC                   : Yes
Format settings, ReFrames                : 4 frames
Muxing mode                              : Header stripping
Codec ID                                 : V_MPEG4/ISO/AVC
Duration                                 : 2h 23mn
Bit rate                                 : 2 000 Kbps
Width                                    : 1 280 pixels
Height                                   : 544 pixels
Display aspect ratio                     : 2.35:1
Frame rate                               : 24.000 fps
Color space                              : YUV
Chroma subsampling                       : 4:2:0
Bit depth                                : 10 bits
Stream size                              : 1.96 GiB (80%)


Audio
ID                                       : 2
Format                                   : AC-3
Bit rate mode                            : Constant
Bit rate                                 : 448 Kbps
Channel(s)                               : 6 channels
Channel positions                        : Front: L C R, Side: L R, LFE
Sampling rate                            : 48.0 KHz
Bit depth                                : 16 bits
Compression mode                         : Lossy
Stream size                              : 460 MiB (18%)
Language                                 : Hindi
Source                                   : 1080p DDR THANKS

 
http://www.shotpix.com/images/48453325274608369028.png
 
http://www.shotpix.com/images/68870709990086946114.png
 
http://www.shotpix.com/images/56042582415963656142.png
 
http://www.shotpix.com/images/64832894052209654708.png
 
http://www.shotpix.com/images/23153471936198741530.png
 
http://www.shotpix.com/images/53711882461628786934.png
 
http://www.shotpix.com/images/25409611506691412625.png
 
http://www.shotpix.com/images/08739499358771694426.png
 
http://www.shotpix.com/images/51231870666312504951.png
 
http://www.shotpix.com/images/79029321153044536813.png


                                Check the sample First